<?xml version="1.0" standalone="no"?>
<!DOCTYPE svg PUBLIC "-//W3C//DTD SVG 20010904//EN"
 "http://www.w3.org/TR/2001/REC-SVG-20010904/DTD/svg10.dtd">
<svg version="1.0" xmlns="http://www.w3.org/2000/svg"
 width="449.000000pt" height="449.000000pt" viewBox="0 0 449.000000 449.000000"
 preserveAspectRatio="xMidYMid meet">
<metadata>
Created by potrace 1.11, written by Peter Selinger 2001-2013
</metadata>
<g transform="translate(0.000000,449.000000) scale(0.100000,-0.100000)"
fill="#000000" stroke="none">
<path d="M949 3786 c-2 -2 -51 -6 -109 -10 -58 -4 -125 -9 -150 -11 -25 -2
-81 -7 -125 -10 -44 -3 -100 -8 -125 -10 -25 -2 -76 -7 -115 -10 -269 -21
-283 -23 -306 -49 -25 -26 -20 -70 15 -148 13 -29 36 -80 50 -113 15 -33 31
-67 35 -75 5 -9 55 -117 111 -240 56 -124 118 -259 137 -300 19 -41 60 -129
90 -195 31 -66 72 -156 93 -200 117 -250 260 -565 260 -574 0 -6 5 -11 10 -11
6 0 10 -6 10 -14 0 -8 9 -31 20 -53 11 -21 40 -82 64 -136 58 -125 80 -155
129 -177 71 -32 66 -33 757 148 146 38 279 72 295 76 30 6 31 5 110 -141 104
-190 129 -236 203 -367 34 -60 62 -110 62 -113 0 -2 8 -16 19 -31 10 -15 46
-76 81 -135 68 -118 126 -177 171 -177 34 0 135 31 394 122 179 62 233 82 300
108 11 5 54 20 95 35 811 289 854 306 865 333 8 22 -11 54 -151 242 -350 471
-409 551 -412 558 -1 4 28 15 65 24 110 26 526 138 555 149 15 6 29 18 32 26
5 12 -189 267 -319 420 -5 7 -15 18 -20 25 -238 296 -253 311 -310 303 -36 -5
-101 -15 -135 -21 -14 -2 -52 -9 -85 -14 -33 -5 -71 -12 -85 -14 -14 -3 -43
-7 -65 -10 -22 -4 -51 -8 -65 -11 -31 -6 -66 -12 -150 -26 -93 -15 -129 -28
-141 -50 -10 -19 10 -51 179 -288 18 -25 49 -71 69 -101 21 -30 40 -57 43 -60
4 -3 36 -47 71 -98 35 -52 70 -103 78 -113 17 -24 13 -28 -41 -41 -51 -11 -71
-16 -98 -23 -32 -8 -50 -12 -130 -30 -41 -9 -97 -23 -125 -31 -27 -8 -120 -30
-205 -50 -85 -19 -217 -51 -293 -70 -75 -18 -147 -36 -160 -38 -12 -2 -80 -18
-150 -35 -71 -17 -130 -31 -132 -31 -3 0 -52 77 -85 135 -10 17 -59 100 -110
185 -51 85 -101 169 -110 185 -10 17 -90 151 -179 298 -88 148 -161 270 -161
273 0 3 -5 10 -10 17 -6 7 -88 143 -183 302 -282 475 -273 461 -311 479 -30
14 -106 22 -117 12z m82 -203 c24 -42 56 -97 70 -122 14 -26 117 -203 229
-396 112 -192 211 -363 220 -380 44 -79 218 -378 412 -710 37 -64 60 -116 55
-122 -4 -4 -91 -26 -150 -38 -10 -2 -27 -7 -37 -10 -10 -3 -27 -8 -37 -10 -10
-2 -49 -11 -88 -20 -38 -9 -77 -18 -85 -20 -8 -2 -73 -17 -145 -35 -71 -17
-137 -33 -145 -35 -8 -2 -52 -12 -98 -23 l-83 -20 -38 82 c-21 44 -80 167
-131 271 -51 105 -114 235 -140 290 -26 55 -92 190 -145 300 -177 363 -266
548 -337 695 -38 80 -87 179 -108 220 -39 77 -40 94 -6 97 10 0 56 4 102 8 46
3 94 8 106 10 13 2 64 6 114 10 50 3 102 8 115 10 13 2 66 7 118 9 52 3 95 7
97 8 1 2 22 4 46 5 l44 3 45 -77z m2846 -671 c10 -11 45 -54 77 -96 33 -43 67
-86 75 -96 9 -10 26 -32 38 -47 12 -15 62 -80 112 -143 50 -63 89 -119 88
-125 -3 -8 -507 -142 -544 -144 -6 -1 -79 92 -162 207 -82 114 -154 212 -158
217 -30 36 -93 130 -93 140 0 6 34 17 78 24 42 7 86 15 97 17 11 2 72 13 135
24 146 25 174 31 177 33 11 12 66 4 80 -11z m-129 -925 c37 -51 74 -102 82
-114 26 -38 224 -308 229 -313 4 -3 22 -27 41 -55 19 -27 38 -51 42 -53 4 -2
8 -13 8 -25 0 -24 75 3 -810 -297 -239 -81 -455 -155 -480 -164 -70 -25 -85
-21 -118 27 -29 43 -323 544 -382 652 -18 33 -37 65 -42 72 -13 16 -11 17 152
58 80 20 197 50 260 67 104 27 514 133 550 142 8 3 50 14 93 26 43 12 88 23
100 26 12 2 60 15 107 27 47 13 88 22 92 20 4 -2 38 -45 76 -96z"/>
</g>
</svg>
